<svg xmlns="http://www.w3.org/2000/svg"  viewBox="0 0 50 50" width="50px" height="50px"><path d="M 5 5 L 5 45 L 45 45 L 45 5 L 5 5 z M 7 7 L 43 7 L 43 43 L 7 43 L 7 7 z M 22 11.326172 C 21.656 11.326172 21.312047 11.500656 21.123047 11.847656 L 18.601562 16.457031 C 18.050563 17.464031 17.223797 18.29275 16.216797 18.84375 L 11.605469 21.365234 C 10.911469 21.744234 10.911469 22.739141 11.605469 23.119141 L 16.216797 25.642578 C 17.223797 26.193578 18.050563 27.020344 18.601562 28.027344 L 21.123047 32.638672 C 21.313047 32.985672 21.657 33.158203 22 33.158203 C 22.343 33.158203 22.687953 32.985672 22.876953 32.638672 L 25.398438 28.027344 C 25.949437 27.020344 26.776203 26.192578 27.783203 25.642578 L 32.394531 23.119141 C 33.088531 22.740141 33.088531 21.745234 32.394531 21.365234 L 27.783203 18.84375 C 26.776203 18.29275 25.949438 17.464031 25.398438 16.457031 L 22.876953 11.847656 C 22.687953 11.501656 22.344 11.326172 22 11.326172 z M 22 14.410156 L 23.644531 17.417969 C 24.380531 18.762969 25.479219 19.862656 26.824219 20.597656 L 29.832031 22.242188 L 26.824219 23.888672 C 25.479219 24.623672 24.379531 25.723359 23.644531 27.068359 L 22 30.074219 L 20.355469 27.068359 C 19.619469 25.723359 18.520781 24.623672 17.175781 23.888672 L 14.167969 22.242188 L 17.175781 20.597656 C 18.520781 19.862656 19.620469 18.762969 20.355469 17.417969 L 22 14.410156 z M 34.230469 28.6875 C 33.790469 28.6895 33.388641 28.928547 33.181641 29.310547 L 31.953125 31.556641 C 31.862125 31.724641 31.725641 31.860125 31.556641 31.953125 L 29.314453 33.181641 C 28.928453 33.390641 28.6895 33.793422 28.6875 34.232422 C 28.6865 34.672422 28.9255 35.075109 29.3125 35.287109 L 31.556641 36.517578 C 31.723641 36.607578 31.860125 36.745063 31.953125 36.914062 L 33.179688 39.152344 C 33.388687 39.541344 33.792422 39.782203 34.232422 39.783203 L 34.234375 39.783203 C 34.674375 39.783203 35.078109 39.544203 35.287109 39.158203 L 36.515625 36.914062 C 36.607625 36.746063 36.745109 36.608625 36.912109 36.515625 L 39.15625 35.289062 C 39.54425 35.078062 39.78225 34.673422 39.78125 34.232422 C 39.78025 33.791422 39.540203 33.388594 39.158203 33.183594 L 36.912109 31.953125 C 36.743109 31.861125 36.607625 31.723641 36.515625 31.556641 L 35.287109 29.3125 L 35.287109 29.310547 C 35.075109 28.926547 34.672375 28.6875 34.234375 28.6875 L 34.230469 28.6875 z M 34.234375 31.556641 L 34.759766 32.517578 C 35.034766 33.021578 35.446172 33.432984 35.951172 33.708984 L 36.914062 34.234375 L 35.951172 34.761719 C 35.448172 35.037719 35.037719 35.448125 34.761719 35.953125 L 34.234375 36.914062 L 33.708984 35.951172 C 33.432984 35.447172 33.021578 35.035719 32.517578 34.761719 L 31.556641 34.234375 L 32.517578 33.710938 C 33.021578 33.434938 33.433984 33.021578 33.708984 32.517578 L 34.234375 31.556641 z"/></svg>