<svg xmlns="http://www.w3.org/2000/svg"  viewBox="0 0 50 50" width="50px" height="50px"><path d="M 25.068359 5.625 C 22.955359 5.625 20.841156 5.8639375 18.785156 6.3359375 L 17.328125 6.6699219 C 16.097125 6.9509219 15.200297 7.9489687 15.029297 9.1679688 C 10.169297 12.268969 6.3945469 17.379859 4.8105469 23.005859 L 4.5859375 23.115234 C 2.5439375 24.117234 1.4346719 26.374516 1.8886719 28.603516 L 3.2441406 35.248047 C 3.7161406 37.566047 5.7765781 39.25 8.1425781 39.25 L 8.1542969 39.25 C 11.875297 42.962 18.011 45 25.5 45 C 33.19 45 39.428953 42.855125 43.126953 38.953125 C 45.252953 38.698125 46.985922 37.124047 47.419922 34.998047 L 48.773438 28.353516 C 49.223438 26.155516 48.151109 23.92825 46.162109 22.90625 C 44.563109 17.32525 40.801469 12.253828 35.980469 9.1738281 C 35.837469 7.9758281 34.979875 6.9568125 33.796875 6.6328125 C 31.368875 5.9648125 28.860844 5.625 26.339844 5.625 L 25.068359 5.625 z M 25.068359 7.6230469 L 26.339844 7.6230469 C 28.680844 7.6230469 31.009625 7.9385937 33.265625 8.5585938 C 33.697625 8.6775937 34 9.0744375 34 9.5234375 L 34 9.7402344 C 34 10.091234 34.184375 10.416703 34.484375 10.595703 C 39.221375 13.458703 42.909609 18.416375 44.349609 23.859375 C 44.423609 24.139375 44.615 24.373953 44.875 24.501953 L 45.195312 24.660156 L 45.197266 24.660156 C 46.421266 25.262156 47.086453 26.614172 46.814453 27.951172 L 45.460938 34.597656 C 45.182937 35.958656 44.015094 36.940281 42.621094 36.988281 C 42.348094 36.997281 42.092156 37.117312 41.910156 37.320312 C 38.636156 40.982312 32.808 43 25.5 43 C 18.359 43 12.607687 41.069453 9.3046875 37.564453 C 9.1156875 37.363453 8.8511719 37.25 8.5761719 37.25 L 8.140625 37.25 C 6.722625 37.25 5.4851719 36.241609 5.2011719 34.849609 L 3.8476562 28.203125 C 3.5756562 26.865125 4.2407969 25.512156 5.4667969 24.910156 L 6.0976562 24.599609 C 6.3576563 24.470609 6.5500469 24.234125 6.6230469 23.953125 C 8.0480469 18.471125 11.746578 13.478703 16.517578 10.595703 C 16.816578 10.415703 17 10.091234 17 9.7402344 L 17 9.59375 C 17 9.12475 17.318391 8.7241406 17.775391 8.6191406 L 19.232422 8.2851562 C 21.141422 7.8471563 23.105359 7.625 25.068359 7.625 L 25.068359 7.6230469 z M 25.5 10.878906 C 16.057 10.878906 9 19.838609 9 27.849609 C 9 35.419609 15.322 40.121094 25.5 40.121094 C 35.678 40.121094 42 35.419609 42 27.849609 C 42 19.838609 34.943 10.878906 25.5 10.878906 z M 25.5 12.878906 C 33.666 12.878906 40 20.926609 40 27.849609 C 40 37.380609 28.901 38.121094 25.5 38.121094 C 22.099 38.121094 11 37.380609 11 27.849609 C 11 20.926609 17.334 12.878906 25.5 12.878906 z M 18.773438 29.130859 C 18.644625 29.116594 18.510156 29.128469 18.378906 29.167969 C 17.849906 29.325969 17.549031 29.882156 17.707031 30.410156 C 18.516031 33.112156 21.515 35 25 35 C 28.485 35 31.483969 33.112156 32.292969 30.410156 C 32.450969 29.882156 32.150094 29.325969 31.621094 29.167969 C 31.097094 29.009969 30.534953 29.310844 30.376953 29.839844 C 29.828953 31.670844 27.567 33 25 33 C 22.433 33 20.171047 31.670844 19.623047 29.839844 C 19.503797 29.443094 19.159875 29.173656 18.773438 29.130859 z"/></svg>